<svg xmlns="http://www.w3.org/2000/svg" width="106" height="132.945" viewBox="0 0 106 132.945"><defs><style>.a,.b{fill:#dc3545;}.b{font-size:29px;font-family:Cairo-Bold, Cairo;font-weight:700;}</style></defs><g transform="translate(-3936.797 -4486.316)"><g transform="translate(3943.608 4486.316)"><path class="a" d="M834.387,286.478a13.764,13.764,0,0,0-3.708-5.827c-1.709-1.733-3.753-3.129-5.2-5.121a27.9,27.9,0,0,0-2.877-3.383,47.543,47.543,0,0,0-6.771-5.242,13.729,13.729,0,0,1-5.781-7.462,25.655,25.655,0,0,0-10.92-14.346c-4.837-3.232-10.325-4.444-16.044-4.73a39.138,39.138,0,0,0-19.47,4.024c-8.486,4.162-14.871,10.419-18.184,19.347a41.826,41.826,0,0,0-.343,29.317,35.884,35.884,0,0,0,11.249,16.121,32.275,32.275,0,0,0,10.379,5.143,6.419,6.419,0,0,1,2.4,1.054A29.337,29.337,0,0,0,793.8,322.77a20.838,20.838,0,0,0,4.024-.927c-.234-.249-.368-.411-.521-.551a14.529,14.529,0,0,1-3.121-3.707c-.13-.24-.327-.591-.241-.769.158-.328.575-.156.857-.112a8.476,8.476,0,0,1,5.49,3.085,33.185,33.185,0,0,1,2.187,3.513,9.548,9.548,0,0,0,2.371-5.264,16.221,16.221,0,0,0-1.53-8.228,31.855,31.855,0,0,1-2.01-5.229c-.352-1.467-.141-1.7,1.32-1.681a10.822,10.822,0,0,1,1.27.038,18.427,18.427,0,0,0,10.336-1.49,6.244,6.244,0,0,1,4.729-.333c1.071.347,2.178.582,3.254.916,4.193,1.3,7.506-1.019,9.145-4.045,1.006-1.858,1.726-3.85,2.706-5.729A7.632,7.632,0,0,0,834.387,286.478Zm-32.166,31.044c-.34.067-.507-.223-.693-.392-4.377-3.956-9.219-3.9-14.276-1.606a14.661,14.661,0,0,1-5.061,1.425,8.138,8.138,0,0,0,3.769.246q2.043-.271,4.083-.562a.972.972,0,0,1,1.156.669c.407.934.881,1.838,1.419,2.945A26.069,26.069,0,0,1,774.443,316c9.2-.55,17.641-2.916,24.245-9.79C800.576,308.708,802.49,314.856,802.221,317.521Zm27.842-24.555a6.072,6.072,0,0,1-2.928-.156c-1.99-.367-3.971-.787-5.977-1.1a36.405,36.405,0,0,0,7.68,2.928c.869.176,1.163.494.623,1.307-.35.528-.59,1.137-.98,1.631-1.631,2.066-3.244,2.549-5.8,1.819-1.252-.359-2.5-.771-3.77-1.024a8.169,8.169,0,0,0-5.291.462c-3.133,1.546-6.445,1.652-9.821,1.527-.87-.032-.689-.442-.488-.952a22.694,22.694,0,0,0,1.57-6.766,20.368,20.368,0,0,0-1.524-9.09c-.075-.189-.148-.38-.242-.621a5.958,5.958,0,0,1,2.443,2.518,83.1,83.1,0,0,0,4.551,7.009c.409.512.888.969,1.334,1.451l.192-.181a21.365,21.365,0,0,1-3.938-7.075,16.4,16.4,0,0,0-7.261-8.4c-2.067-1.216-3.842-2.871-6.015-3.934-5.832-2.854-11.71-2.62-17.63-.322a16.817,16.817,0,0,0-1.846.793c-.554.3-1.055.691-1.589,1.049-.255-.245,0-.437.113-.61a26.916,26.916,0,0,1,6.023-6.346,2.164,2.164,0,0,1,2.357-.343,6.462,6.462,0,0,0,3.254.414c-.054-.3-.336-.311-.515-.386a14.647,14.647,0,0,1-6.622-5.88c-.416-.64-.34-.958.49-.951,1.413.011,2.826-.011,4.239,0a2.666,2.666,0,0,1,1.876.856,24.806,24.806,0,0,1,2.3,2.629,5.1,5.1,0,0,0,2.165,1.716c-2.15-2.031-2.4-5.612-5.794-6.739,2.065-.437,3.832.3,5.437,2.119a12.084,12.084,0,0,0,4.371,3.6c.2.079.389.169.588.238.057.02.133-.012.422-.046-2.559-1.253-3.806-3.542-5.394-5.52-1.516-1.889-3.687-2.373-5.933-2.6a15.4,15.4,0,0,0-5.034.484,2.615,2.615,0,0,0-1.253.536c-1.547,1.582-3.718,1.935-5.565,2.916-6.993,3.712-11.4,9.321-11.807,17.334-.38,7.509,1.839,14.294,8.26,18.812,5.875,4.133,12.435,4.44,18.76,1.192,6.6-3.39,7.875-12.709,2.857-18.21a4.794,4.794,0,0,1-.292-.459,11.752,11.752,0,0,1,3.9,2.29,14.912,14.912,0,0,1,1.874,1.857c1.046,1.181.556,2.522-1.023,2.858a9.572,9.572,0,0,1-1.03.09,2.783,2.783,0,0,0,3.161.186c.722-.361,1.051-.156,1.338.529a20.617,20.617,0,0,1,1.334,4.552c.1.614-.02.885-.723,1.088-1.771.512-3.483.852-5.2-.206A5.212,5.212,0,0,0,796.6,295.9c1.777.015,1.926.225,1.578,1.993a6.322,6.322,0,0,0-.3,1.978,13.7,13.7,0,0,0,.983-4.475,16.989,16.989,0,0,0-12-17.528,19.154,19.154,0,0,0-9.32-.144c-.62.13-1.605.646-1.819-.011-.2-.608.91-.757,1.487-.991,4.389-1.783,8.852-2.52,13.515-1.048a16.5,16.5,0,0,1,9.908,23.179,22.321,22.321,0,0,1-4.284,5.873c-.352.355-.589.506-1,.059a2.819,2.819,0,0,0-1.451-.84c-1.942-.42-3.724-1.088-4.852-2.916a5.46,5.46,0,0,0,2.934,3.975c2.543,1.5,2.541,1.465.192,3.1a27.32,27.32,0,0,1-5.333,2.784c-.543.223-.891.258-1.1-.432a3.821,3.821,0,0,0-1.139-1.633c-2.239-2.114-2.336-2.307-2.777-5.494a6.629,6.629,0,0,0,.886,5.9,7.847,7.847,0,0,1,.966,1.634c.216.595.044.958-.552,1.129a27.348,27.348,0,0,1-8.565,1.109c-.466-.017-.75-.144-.683-.676a5.99,5.99,0,0,0-.652-3.17,6.179,6.179,0,0,1,.075-5.035c.132-.314.408-.586.294-1.123a7.527,7.527,0,0,0-2.032,4.759,9.154,9.154,0,0,0,.255,2.517c.352,1.915-.282,2.525-2.138,2.083a40.574,40.574,0,0,1-8.08-3.1c-.573-.275-.734-.524-.311-1.1a3.747,3.747,0,0,0,.747-2.276,6.388,6.388,0,0,1,2.919-5.558c.145-.1.307-.175.38-.363a3.476,3.476,0,0,0-2.232,1.008,6.89,6.89,0,0,0-2.611,4.112,4.368,4.368,0,0,1-.248.808c-.637,1.571-1.522,1.776-2.825.666a34.878,34.878,0,0,1-6.484-7.642c-.36-.551-.455-.839.275-1.162a4.021,4.021,0,0,0,1.866-1.814,6.72,6.72,0,0,1,5.317-3.564c.232-.03.5,0,.638-.328a8.11,8.11,0,0,0-7.293,2.771,3.573,3.573,0,0,1-.784.7c-1.124.667-1.695.5-2.255-.7a34.406,34.406,0,0,1-2.812-9.275c-.114-.729-.492-1.568-.257-2.162.284-.717,1.321-.206,1.991-.5a8.765,8.765,0,0,0,1.7-.846,7.247,7.247,0,0,1,6.948-.874c.145.048.3.192.519.02a8.267,8.267,0,0,0-7.88-.813,10.589,10.589,0,0,1-1.606.525c-1.277.251-1.969-.288-1.979-1.64a41.869,41.869,0,0,1,.419-6.116,43.991,43.991,0,0,1,1.194-5.683c.2-.725.362-1.071,1.156-.57a3.162,3.162,0,0,0,2.245.451,7.954,7.954,0,0,1,7.2,2.475.644.644,0,0,0,.382.2,8.1,8.1,0,0,0-3.828-3.621,10.9,10.9,0,0,0-3.572-.891c-2.026-.236-2.573-1.215-1.724-3.032a32.577,32.577,0,0,1,5.839-8.519c.5-.535.84-.718,1.35.04a3.993,3.993,0,0,0,2.174,1.62,8.53,8.53,0,0,1,6.113,6.416,8.546,8.546,0,0,0-4.445-7.5,6.326,6.326,0,0,1-1.735-1.191,1.6,1.6,0,0,1,.242-2.6,37.056,37.056,0,0,1,21.838-7.808c6.266-.195,12.171.951,17.489,4.3,6.265,3.944,9.684,9.792,10.721,17.073a4.3,4.3,0,0,1-.027,1.264c-.2,1.257-.636,1.594-1.917,1.634a6.022,6.022,0,0,1-3.463-1.121,29.256,29.256,0,0,0-4.789-2.844c2.188,1.651,3.883,3.912,6.457,5.074a5.861,5.861,0,0,0,3.329.31c1.124-.162,1.645-.813,2.508-2.833,3.606,3.511,8.31,5.65,11.552,9.568.741.9,1.42,1.842,2.155,2.743a.992.992,0,0,1-.056,1.471,15.7,15.7,0,0,0-3.049,5.418c.354-.46.716-.914,1.062-1.38a16.606,16.606,0,0,1,3.362-3.2c.29-.222.557-.376.935-.075a28.124,28.124,0,0,1,4.126,4.127,23.6,23.6,0,0,0-2.764.274,4.666,4.666,0,0,0-2.611,2.031c-.541.857-.2,1.431.829,1.42a5.419,5.419,0,0,0,.94-.129,3.6,3.6,0,0,1,4.266,1.945A1.81,1.81,0,0,1,830.063,292.966Zm-64.118-3.873c.45-.862.921-1.713,1.46-2.714.559,2.248.724,4.4,1.756,6.318a26.757,26.757,0,0,1,.809-10.492c1.215,3.7,4.324,5.371,6.77,7.651.764.712,1.544,1.408,2.367,2.066a27.976,27.976,0,0,0-3.05-3.663c-.951-1.09-1.949-2.138-2.923-3.207a7.023,7.023,0,0,1-.474-8.312c.306.1.143.349.137.521-.062,2.06.833,3.076,2.933,3.147,1.727.058,3.46-.058,5.188-.008a8.706,8.706,0,0,1,4.875,1.5c4.767,3.357,4.322,9.605,1.388,13.095-2.171,2.583-5.146,3.394-8.311,3.56-4.668.245-8.863-.945-12.188-4.477C764.543,291.809,764.515,291.831,765.945,289.092Zm-2.385-1.215a4.588,4.588,0,0,1-.4.488c-2.415-6.809-2.1-13.059,2.335-18.787a19.69,19.69,0,0,1,8.574-6.158,1.1,1.1,0,0,1,1.569.511c.5.808,1.083,1.566,1.628,2.347.223.32.48.606,0,.965-4.672,3.468-7.229,8.475-9.812,13.472C766.2,283.128,764.861,285.493,763.56,287.877Z" transform="translate(-742.608 -240.316)"/><path class="a" d="M1016.322,396.034a5.229,5.229,0,0,1-2.7-2c-1.333-1.709-2.379-2.078-4.3-1.117-3.507,1.758-6.083.116-7.923-2.9,2.222.4,4.01-1.075,6.136-.875a8.186,8.186,0,0,1,6.551,3.873A14.892,14.892,0,0,0,1016.322,396.034Z" transform="translate(-946.528 -357.573)"/></g><text class="b" transform="translate(3936.797 4602.261)"><tspan x="0" y="0"></tspan></text></g></svg>